<?xml version="1.0" encoding="UTF-8" standalone="no"?>
<svg
   xmlns:dc="http://purl.org/dc/elements/1.1/"
   xmlns:cc="http://creativecommons.org/ns#"
   xmlns:rdf="http://www.w3.org/1999/02/22-rdf-syntax-ns#"
   xmlns:svg="http://www.w3.org/2000/svg"
   xmlns="http://www.w3.org/2000/svg"
   xmlns:sodipodi="http://sodipodi.sourceforge.net/DTD/sodipodi-0.dtd"
   xmlns:inkscape="http://www.inkscape.org/namespaces/inkscape"
   version="1.1"
   id="svg2"
   xml:space="preserve"
   width="548.22668"
   height="531.58667"
   viewBox="0 0 548.22668 531.58667"
   sodipodi:docname="logo.svg"
   inkscape:version="1.0.2 (1.0.2+r75+1)"><metadata
     id="metadata8"><rdf:RDF><cc:Work
         rdf:about=""><dc:format>image/svg+xml</dc:format><dc:type
           rdf:resource="http://purl.org/dc/dcmitype/StillImage" /><dc:title></dc:title></cc:Work></rdf:RDF></metadata><defs
     id="defs6"><clipPath
       clipPathUnits="userSpaceOnUse"
       id="clipPath372"><path
         d="m 2638.88,2249.89 h -121.4 v 0 h -43.59 v 0 h -39.92 c -21.91,3.63 -33.71,35.73 -39.71,83.85 17.38,6.01 32.01,12.26 41.95,18.14 v 0 c 8.92,-16.58 20.04,-30.95 37.67,-38.77 26.14,-11.59 77.47,-26.05 105.63,-31 -1.45,-0.03 -3.05,-0.05 -4.78,-0.05 -11.41,0 -28.43,0.7 -46.05,1.4 -17.6,0.69 -35.8,1.39 -49.56,1.39 -13.66,0 -22.94,-0.68 -22.96,-2.74 17.85,-12.56 109.65,-18.73 182.72,-32.22"
         id="path370" /></clipPath><clipPath
       clipPathUnits="userSpaceOnUse"
       id="clipPath740"><path
         d="m 3663.25,1066.2 h -209.1 c -1.51,13.8 -2.05,27.93 -2.04,42.24 0.01,35.83 3.41,72.79 3.42,108.62 0.01,23.83 -1.49,47.17 -6.48,69.34 -8.3,37.2 -6.5,83.6 -37,106.2 4,6.9 8,14 11.9,21.2 v 0 c 12.3,-4 24.9,-7.1 37.7,-9.5 0.8,-17.3 1.6,-34.6 2.4,-51.9 2.3,-49.3 4.9,-99.8 24.1,-145.2 18.5,-43.6 55.8,-82.4 102.1,-90.2 -34.2,4.8 -68.4,9.6 -102.6,14.3 46.3,-42.5 115.8,-44.9 175.6,-65.1"
         id="path738" /></clipPath></defs><sodipodi:namedview
     pagecolor="#ffffff"
     bordercolor="#666666"
     borderopacity="1"
     objecttolerance="10"
     gridtolerance="10"
     guidetolerance="10"
     inkscape:pageopacity="0"
     inkscape:pageshadow="2"
     inkscape:window-width="1920"
     inkscape:window-height="1016"
     id="namedview4"
     showgrid="false"
     inkscape:zoom="1.6215606"
     inkscape:cx="283.74453"
     inkscape:cy="302.29342"
     inkscape:window-x="0"
     inkscape:window-y="27"
     inkscape:window-maximized="1"
     inkscape:current-layer="g10" /><g
     id="g10"
     inkscape:groupmode="layer"
     inkscape:label="ink_ext_XXXXXX"
     transform="matrix(1.3333333,0,0,-1.3333333,0,531.58667)"><path
       d="M 130.40603,52.540815 H 43.344106 V 67.905696 H 130.40603 V 52.540815"
       style="fill:#ffde82;fill-opacity:1;fill-rule:nonzero;stroke:none;stroke-width:0.430148"
       id="path34" /><path
       d="M 130.40603,52.540815 H 43.344106 V 65.505471 H 130.40603 V 52.540815"
       style="fill:#ffbb00;fill-opacity:1;fill-rule:nonzero;stroke:none;stroke-width:0.430148"
       id="path36" /><path
       d="M 122.89565,67.905696 H 35.833725 V 83.270577 H 122.89565 V 67.905696"
       style="fill:#ffde82;fill-opacity:1;fill-rule:nonzero;stroke:none;stroke-width:0.430148"
       id="path38" /><path
       d="M 122.89565,67.905696 H 35.833725 V 80.866051 H 122.89565 V 67.905696"
       style="fill:#ffbb00;fill-opacity:1;fill-rule:nonzero;stroke:none;stroke-width:0.430148"
       id="path40" /><path
       d="M 133.8214,83.270577 H 46.75948 v 15.36058 h 87.06192 v -15.36058"
       style="fill:#ffde82;fill-opacity:1;fill-rule:nonzero;stroke:none;stroke-width:0.430148"
       id="path42" /><path
       d="M 133.8214,83.270577 H 46.75948 V 96.230932 H 133.8214 V 83.270577"
       style="fill:#ffbb00;fill-opacity:1;fill-rule:nonzero;stroke:none;stroke-width:0.430148"
       id="path44" /><path
       d="M 133.8214,98.631157 H 46.75948 V 113.99604 H 133.8214 V 98.631157"
       style="fill:#ffde82;fill-opacity:1;fill-rule:nonzero;stroke:none;stroke-width:0.430148"
       id="path46" /><path
       d="M 133.8214,98.631157 H 46.75948 V 111.59581 H 133.8214 V 98.631157"
       style="fill:#ffbb00;fill-opacity:1;fill-rule:nonzero;stroke:none;stroke-width:0.430148"
       id="path48" /><path
       d="M 129.04246,113.99604 H 41.980537 v 15.36488 h 87.061923 v -15.36488"
       style="fill:#ffde82;fill-opacity:1;fill-rule:nonzero;stroke:none;stroke-width:0.430148"
       id="path50" /><path
       d="M 129.04246,113.99604 H 41.980537 v 12.96465 h 87.061923 v -12.96465"
       style="fill:#ffbb00;fill-opacity:1;fill-rule:nonzero;stroke:none;stroke-width:0.430148"
       id="path52" /><path
       d="m 235.56428,52.540815 h -87.06193 v 15.364881 h 87.06193 V 52.540815"
       style="fill:#ffde82;fill-opacity:1;fill-rule:nonzero;stroke:none;stroke-width:0.430148"
       id="path54" /><path
       d="m 235.56428,52.540815 h -87.06193 v 12.964656 h 87.06193 V 52.540815"
       style="fill:#ffbb00;fill-opacity:1;fill-rule:nonzero;stroke:none;stroke-width:0.430148"
       id="path56" /><path
       d="m 238.97965,67.905696 h -87.06193 v 15.364881 h 87.06193 V 67.905696"
       style="fill:#ffde82;fill-opacity:1;fill-rule:nonzero;stroke:none;stroke-width:0.430148"
       id="path58" /><path
       d="m 238.97965,67.905696 h -87.06193 v 12.960355 h 87.06193 V 67.905696"
       style="fill:#ffbb00;fill-opacity:1;fill-rule:nonzero;stroke:none;stroke-width:0.430148"
       id="path60" /><path
       d="m 234.20071,83.270577 h -87.06193 v 15.36058 h 87.06193 v -15.36058"
       style="fill:#ffde82;fill-opacity:1;fill-rule:nonzero;stroke:none;stroke-width:0.430148"
       id="path62" /><path
       d="m 234.20071,83.270577 h -87.06193 v 12.960355 h 87.06193 V 83.270577"
       style="fill:#ffbb00;fill-opacity:1;fill-rule:nonzero;stroke:none;stroke-width:0.430148"
       id="path64" /><path
       d="m 238.97965,98.631157 h -87.06193 v 15.364883 h 87.06193 V 98.631157"
       style="fill:#ffde82;fill-opacity:1;fill-rule:nonzero;stroke:none;stroke-width:0.430148"
       id="path66" /><path
       d="m 238.97965,98.631157 h -87.06193 v 12.964653 h 87.06193 V 98.631157"
       style="fill:#ffbb00;fill-opacity:1;fill-rule:nonzero;stroke:none;stroke-width:0.430148"
       id="path68" /><path
       d="m 234.20071,113.99604 h -87.06193 v 15.36488 h 87.06193 v -15.36488"
       style="fill:#ffde82;fill-opacity:1;fill-rule:nonzero;stroke:none;stroke-width:0.430148"
       id="path70" /><path
       d="m 234.20071,113.99604 h -87.06193 v 12.96465 h 87.06193 v -12.96465"
       style="fill:#ffbb00;fill-opacity:1;fill-rule:nonzero;stroke:none;stroke-width:0.430148"
       id="path72" /><path
       d="m 230.95739,129.36092 h -87.06622 v 15.36488 h 87.06622 v -15.36488"
       style="fill:#ffde82;fill-opacity:1;fill-rule:nonzero;stroke:none;stroke-width:0.430148"
       id="path74" /><path
       d="m 230.95739,129.36092 h -87.06622 v 12.96035 h 87.06622 v -12.96035"
       style="fill:#ffbb00;fill-opacity:1;fill-rule:nonzero;stroke:none;stroke-width:0.430148"
       id="path76" /><path
       d="m 242.73484,144.7258 h -87.06192 v 15.36488 h 87.06192 V 144.7258"
       style="fill:#ffde82;fill-opacity:1;fill-rule:nonzero;stroke:none;stroke-width:0.430148"
       id="path78" /><path
       d="m 242.73484,144.7258 h -87.06192 v 12.96036 h 87.06192 V 144.7258"
       style="fill:#ffbb00;fill-opacity:1;fill-rule:nonzero;stroke:none;stroke-width:0.430148"
       id="path80" /><path
       d="m 238.97965,160.09068 h -87.06193 v 15.36058 h 87.06193 v -15.36058"
       style="fill:#ffde82;fill-opacity:1;fill-rule:nonzero;stroke:none;stroke-width:0.430148"
       id="path82" /><path
       d="m 238.97965,160.09068 h -87.06193 v 12.96036 h 87.06193 v -12.96036"
       style="fill:#ffbb00;fill-opacity:1;fill-rule:nonzero;stroke:none;stroke-width:0.430148"
       id="path84" /><path
       d="m 345.50146,52.540815 h -87.06192 v 15.364881 h 87.06192 V 52.540815"
       style="fill:#ffde82;fill-opacity:1;fill-rule:nonzero;stroke:none;stroke-width:0.430148"
       id="path86" /><path
       d="m 345.50146,52.540815 h -87.06192 v 12.964656 h 87.06192 V 52.540815"
       style="fill:#ffbb00;fill-opacity:1;fill-rule:nonzero;stroke:none;stroke-width:0.430148"
       id="path88" /><path
       d="m 342.94208,67.905696 h -87.06192 v 15.364881 h 87.06192 V 67.905696"
       style="fill:#ffde82;fill-opacity:1;fill-rule:nonzero;stroke:none;stroke-width:0.430148"
       id="path90" /><path
       d="m 342.94208,67.905696 h -87.06192 v 12.960355 h 87.06192 V 67.905696"
       style="fill:#ffbb00;fill-opacity:1;fill-rule:nonzero;stroke:none;stroke-width:0.430148"
       id="path92" /><path
       d="m 344.13789,83.270577 h -87.06192 v 15.36058 h 87.06192 v -15.36058"
       style="fill:#ffde82;fill-opacity:1;fill-rule:nonzero;stroke:none;stroke-width:0.430148"
       id="path94" /><path
       d="m 344.13789,83.270577 h -87.06192 v 12.960355 h 87.06192 V 83.270577"
       style="fill:#ffbb00;fill-opacity:1;fill-rule:nonzero;stroke:none;stroke-width:0.430148"
       id="path96" /><path
       d="m 348.91684,98.631157 h -87.06193 v 15.364883 h 87.06193 V 98.631157"
       style="fill:#ffde82;fill-opacity:1;fill-rule:nonzero;stroke:none;stroke-width:0.430148"
       id="path98" /><path
       d="m 348.91684,98.631157 h -87.06193 v 12.964653 h 87.06193 V 98.631157"
       style="fill:#ffbb00;fill-opacity:1;fill-rule:nonzero;stroke:none;stroke-width:0.430148"
       id="path100" /><path
       d="M 352.67203,113.99604 H 265.6101 v 15.36488 h 87.06193 v -15.36488"
       style="fill:#ffde82;fill-opacity:1;fill-rule:nonzero;stroke:none;stroke-width:0.430148"
       id="path102" /><path
       d="M 352.67203,113.99604 H 265.6101 v 12.96465 h 87.06193 v -12.96465"
       style="fill:#ffbb00;fill-opacity:1;fill-rule:nonzero;stroke:none;stroke-width:0.430148"
       id="path104" /><path
       d="m 350.11265,129.36092 h -87.06193 v 15.36488 h 87.06193 v -15.36488"
       style="fill:#ffde82;fill-opacity:1;fill-rule:nonzero;stroke:none;stroke-width:0.430148"
       id="path106" /><path
       d="m 350.11265,129.36092 h -87.06193 v 12.96035 h 87.06193 v -12.96035"
       style="fill:#ffbb00;fill-opacity:1;fill-rule:nonzero;stroke:none;stroke-width:0.430148"
       id="path108" /><path
       d="M 352.67203,144.7258 H 265.6101 v 15.36488 h 87.06193 V 144.7258"
       style="fill:#ffde82;fill-opacity:1;fill-rule:nonzero;stroke:none;stroke-width:0.430148"
       id="path110" /><path
       d="M 352.67203,144.7258 H 265.6101 v 12.96036 h 87.06193 V 144.7258"
       style="fill:#ffbb00;fill-opacity:1;fill-rule:nonzero;stroke:none;stroke-width:0.430148"
       id="path112" /><path
       d="m 348.91684,160.09068 h -87.06193 v 15.36058 h 87.06193 v -15.36058"
       style="fill:#ffde82;fill-opacity:1;fill-rule:nonzero;stroke:none;stroke-width:0.430148"
       id="path114" /><path
       d="m 348.91684,160.09068 h -87.06193 v 12.96036 h 87.06193 v -12.96036"
       style="fill:#ffbb00;fill-opacity:1;fill-rule:nonzero;stroke:none;stroke-width:0.430148"
       id="path116" /><path
       d="m 345.50146,175.45126 h -87.06192 v 15.36488 h 87.06192 v -15.36488"
       style="fill:#ffde82;fill-opacity:1;fill-rule:nonzero;stroke:none;stroke-width:0.430148"
       id="path118" /><path
       d="m 345.50146,175.45126 h -87.06192 v 12.96466 h 87.06192 v -12.96466"
       style="fill:#ffbb00;fill-opacity:1;fill-rule:nonzero;stroke:none;stroke-width:0.430148"
       id="path120" /><path
       d="M 336.36942,190.81614 H 249.3075 v 15.36488 h 87.06192 v -15.36488"
       style="fill:#ffde82;fill-opacity:1;fill-rule:nonzero;stroke:none;stroke-width:0.430148"
       id="path122" /><path
       d="M 336.36942,190.81614 H 249.3075 v 12.96466 h 87.06192 v -12.96466"
       style="fill:#ffbb00;fill-opacity:1;fill-rule:nonzero;stroke:none;stroke-width:0.430148"
       id="path124" /><path
       d="m 349.51474,206.18102 h -87.06192 v 15.36488 h 87.06192 v -15.36488"
       style="fill:#ffde82;fill-opacity:1;fill-rule:nonzero;stroke:none;stroke-width:0.430148"
       id="path126" /><path
       d="m 349.51474,206.18102 h -87.06192 v 12.96036 h 87.06192 v -12.96036"
       style="fill:#ffbb00;fill-opacity:1;fill-rule:nonzero;stroke:none;stroke-width:0.430148"
       id="path128" /><path
       d="M 352.67203,221.5459 H 265.6101 v 15.36489 h 87.06193 V 221.5459"
       style="fill:#ffde82;fill-opacity:1;fill-rule:nonzero;stroke:none;stroke-width:0.430148"
       id="path130" /><path
       d="M 352.67203,221.5459 H 265.6101 v 12.96036 h 87.06193 V 221.5459"
       style="fill:#ffbb00;fill-opacity:1;fill-rule:nonzero;stroke:none;stroke-width:0.430148"
       id="path132" /><path
       d="m 359.62752,280.43745 c 0,24.04096 -19.49,43.53096 -43.53096,43.53096 -24.04097,0 -43.53097,-19.49 -43.53097,-43.53096 0,-24.04097 19.49,-43.52666 43.53097,-43.52666 24.04096,0 43.53096,19.48569 43.53096,43.52666"
       style="fill:#ffbb00;fill-opacity:1;fill-rule:nonzero;stroke:none;stroke-width:0.430148"
       id="path134" /><path
       d="m 350.11265,280.43745 c 0,18.78886 -15.23154,34.01609 -34.01609,34.01609 -18.78456,0 -34.01179,-15.22723 -34.01179,-34.01609 0,-18.78456 15.22723,-34.01179 34.01179,-34.01179 18.78455,0 34.01609,15.22723 34.01609,34.01179"
       style="fill:#ffde82;fill-opacity:1;fill-rule:nonzero;stroke:none;stroke-width:0.430148"
       id="path136" /><path
       d="m 317.84726,261.42061 v 13.15392 c 2.20666,-2.10342 3.75949,-4.46063 3.75949,-7.5706 0,-2.18945 -0.75276,-4.69291 -3.75949,-5.58332 z m -8.00935,32.35142 c 0,2.17225 0.70114,4.6499 3.48849,5.60053 v -12.90444 c -2.0604,2.0346 -3.48849,4.32299 -3.48849,7.30391 z m 19.45988,-26.27773 c 0,7.08453 -5.31232,10.88704 -10.45259,14.5648 l -0.99794,0.72695 v 16.80158 c 3.40677,-0.73125 4.20684,-3.45839 4.20684,-5.8156 v -0.92482 h 7.14906 v 0.42585 c 0,8.29325 -5.75538,10.7752 -11.3559,11.24406 v 4.95961 h -4.52086 v -4.96821 c -5.5446,-0.50327 -11.18384,-3.03254 -11.18384,-11.23546 0,-7.08023 5.31233,-10.88274 10.45259,-14.56051 l 0.73125,-0.52908 v -16.91771 c -3.47989,0.73125 -4.29717,3.41967 -4.29717,5.73817 v 2.40883 h -7.15336 v -1.91846 c 0,-8.25454 5.78979,-10.7537 11.45053,-11.23546 v -3.83262 h 4.52086 v 3.83262 c 5.65644,0.47746 11.45053,2.97662 11.45053,11.23546"
       style="fill:#ffbb00;fill-opacity:1;fill-rule:nonzero;stroke:none;stroke-width:0.430148"
       id="path138" /><path
       d="m 40.698697,145.65922 -9.304098,13.49374 79.998901,55.17076 74.97477,1.50122 42.44268,60.00562 13.3819,-9.46325 -47.22163,-66.75895 -78.32562,-1.57434 -75.946903,-52.3748"
       style="fill:#2d9bfb;fill-opacity:1;fill-rule:nonzero;stroke:none;stroke-width:0.430148"
       id="path140" /><path
       d="m 251.37651,251.08416 11.07631,58.39257 -51.10587,-30.07594 z"
       style="fill:#2d9bfb;fill-opacity:1;fill-rule:nonzero;stroke:none;stroke-width:0.430148"
       id="path142" /></g></svg>
