<?xml version="1.0" encoding="UTF-8" standalone="no"?>
<svg
   xmlns:dc="http://purl.org/dc/elements/1.1/"
   xmlns:cc="http://creativecommons.org/ns#"
   xmlns:rdf="http://www.w3.org/1999/02/22-rdf-syntax-ns#"
   xmlns:svg="http://www.w3.org/2000/svg"
   xmlns="http://www.w3.org/2000/svg"
   xmlns:sodipodi="http://sodipodi.sourceforge.net/DTD/sodipodi-0.dtd"
   xmlns:inkscape="http://www.inkscape.org/namespaces/inkscape"
   version="1.1"
   id="svg2"
   xml:space="preserve"
   width="802.06665"
   height="590.74664"
   viewBox="0 0 802.06665 590.74664"
   sodipodi:docname="notfound.svg"
   inkscape:version="1.0.2 (1.0.2+r75+1)"><metadata
     id="metadata8"><rdf:RDF><cc:Work
         rdf:about=""><dc:format>image/svg+xml</dc:format><dc:type
           rdf:resource="http://purl.org/dc/dcmitype/StillImage" /><dc:title></dc:title></cc:Work></rdf:RDF></metadata><defs
     id="defs6" /><sodipodi:namedview
     pagecolor="#ffffff"
     bordercolor="#666666"
     borderopacity="1"
     objecttolerance="10"
     gridtolerance="10"
     guidetolerance="10"
     inkscape:pageopacity="0"
     inkscape:pageshadow="2"
     inkscape:window-width="1920"
     inkscape:window-height="1016"
     id="namedview4"
     showgrid="false"
     inkscape:zoom="1.0317893"
     inkscape:cx="688.46644"
     inkscape:cy="271.05531"
     inkscape:window-x="0"
     inkscape:window-y="27"
     inkscape:window-maximized="1"
     inkscape:current-layer="g10" /><g
     id="g10"
     inkscape:groupmode="layer"
     inkscape:label="ink_ext_XXXXXX"
     transform="matrix(1.3333333,0,0,-1.3333333,0,590.74667)"><path
       d="m 186.086,163.402 -1.273,-7.881 -55.779,8.036 1.274,7.88 55.778,-8.035"
       style="fill:#dadbd8;fill-opacity:1;fill-rule:nonzero;stroke:none;stroke-width:0.1"
       id="path16" /><path
       d="m 157.995,191.515 8.004,-1.154 -8.874,-54.917 -8.004,1.153 8.874,54.918"
       style="fill:#dadbd8;fill-opacity:1;fill-rule:nonzero;stroke:none;stroke-width:0.1"
       id="path18" /><path
       d="m 106.618,261.316 c 0.08,-0.12 -11.1645,-7.781 -25.1114,-17.11 -13.9527,-9.332 -25.3246,-16.798 -25.4039,-16.678 -0.08,0.119 11.1621,7.779 25.1141,17.111 13.9473,9.329 25.3222,16.796 25.4012,16.677"
       style="fill:#dadbd8;fill-opacity:1;fill-rule:nonzero;stroke:none;stroke-width:0.1"
       id="path20" /><path
       d="m 147.882,271.674 c 0.08,-0.12 -18.619,-12.767 -41.759,-28.244 -23.1488,-15.484 -41.973,-27.934 -42.0531,-27.814 -0.0801,0.119 18.6149,12.764 41.7631,28.246 23.141,15.478 41.969,27.932 42.049,27.812"
       style="fill:#dadbd8;fill-opacity:1;fill-rule:nonzero;stroke:none;stroke-width:0.1"
       id="path22" /><path
       d="m 156.153,259.308 c 0.081,-0.12 -18.618,-12.767 -41.759,-28.244 C 91.2457,215.58 72.4211,203.13 72.3414,203.249 c -0.0801,0.12 18.6149,12.764 41.7636,28.247 23.14,15.478 41.968,27.931 42.048,27.812"
       style="fill:#dadbd8;fill-opacity:1;fill-rule:nonzero;stroke:none;stroke-width:0.1"
       id="path24" /><path
       d="m 164.425,246.942 c 0.08,-0.12 -18.619,-12.767 -41.759,-28.245 -23.1492,-15.483 -41.9734,-27.933 -42.0535,-27.814 -0.0797,0.119 18.6145,12.764 41.7635,28.247 23.14,15.478 41.969,27.931 42.049,27.812"
       style="fill:#dadbd8;fill-opacity:1;fill-rule:nonzero;stroke:none;stroke-width:0.1"
       id="path26" /><path
       d="m 172.696,234.575 c 0.08,-0.12 -18.619,-12.767 -41.759,-28.244 -23.149,-15.483 -41.9729,-27.934 -42.053,-27.814 -0.0801,0.119 18.615,12.763 41.763,28.246 23.141,15.478 41.969,27.931 42.049,27.812"
       style="fill:#dadbd8;fill-opacity:1;fill-rule:nonzero;stroke:none;stroke-width:0.1"
       id="path28" /><path
       d="m 486.126,160.112 c 0.08,-0.119 -9.352,-6.568 -21.066,-14.403 -11.718,-7.838 -21.279,-14.092 -21.359,-13.972 -0.08,0.12 9.352,6.568 21.07,14.405 11.712,7.835 21.275,14.091 21.355,13.97"
       style="fill:#dadbd8;fill-opacity:1;fill-rule:nonzero;stroke:none;stroke-width:0.1"
       id="path36" /><path
       d="m 520.78,168.812 c 0.08,-0.119 -15.613,-10.756 -35.047,-23.755 -19.441,-13.003 -35.26,-23.445 -35.34,-23.324 -0.08,0.119 15.61,10.753 35.05,23.756 19.435,12.999 35.257,23.443 35.337,23.323"
       style="fill:#dadbd8;fill-opacity:1;fill-rule:nonzero;stroke:none;stroke-width:0.1"
       id="path38" /><path
       d="m 527.728,158.426 c 0.08,-0.119 -15.615,-10.756 -35.048,-23.755 -19.441,-13.003 -35.261,-23.443 -35.341,-23.324 -0.079,0.119 15.61,10.754 35.052,23.757 19.433,12.999 35.257,23.442 35.337,23.322"
       style="fill:#dadbd8;fill-opacity:1;fill-rule:nonzero;stroke:none;stroke-width:0.1"
       id="path40" /><path
       d="m 534.674,148.04 c 0.08,-0.119 -15.613,-10.756 -35.048,-23.755 -19.44,-13.003 -35.26,-23.443 -35.34,-23.324 -0.08,0.119 15.61,10.754 35.051,23.757 19.434,12.999 35.257,23.442 35.337,23.322"
       style="fill:#dadbd8;fill-opacity:1;fill-rule:nonzero;stroke:none;stroke-width:0.1"
       id="path42" /><path
       d="m 541.62,137.655 c 0.08,-0.12 -15.613,-10.756 -35.047,-23.755 -19.441,-13.003 -35.26,-23.4441 -35.34,-23.325 -0.081,0.1199 15.609,10.754 35.05,23.758 19.434,12.998 35.257,23.442 35.337,23.322"
       style="fill:#dadbd8;fill-opacity:1;fill-rule:nonzero;stroke:none;stroke-width:0.1"
       id="path44" /><path
       d="m 303.391,311.068 c -0.08,-0.151 -10.509,5.27 -23.29,12.105 -12.785,6.837 -23.08,12.5 -23,12.651 0.08,0.151 10.507,-5.269 23.292,-12.106 12.78,-6.836 23.079,-12.5 22.998,-12.65"
       style="fill:#dadbd8;fill-opacity:1;fill-rule:nonzero;stroke:none;stroke-width:0.1"
       id="path52" /><path
       d="m 328.064,283.835 c -0.081,-0.151 -17.34,8.922 -38.544,20.263 -21.213,11.345 -38.337,20.66 -38.257,20.81 0.08,0.151 17.336,-8.921 38.548,-20.265 21.205,-11.341 38.333,-20.658 38.253,-20.808"
       style="fill:#dadbd8;fill-opacity:1;fill-rule:nonzero;stroke:none;stroke-width:0.1"
       id="path54" /><path
       d="m 315.942,261.171 c -0.08,-0.151 -17.338,8.922 -38.543,20.263 -21.212,11.345 -38.337,20.66 -38.257,20.811 0.081,0.15 17.336,-8.921 38.548,-20.266 21.205,-11.34 38.334,-20.658 38.252,-20.808"
       style="fill:#dadbd8;fill-opacity:1;fill-rule:nonzero;stroke:none;stroke-width:0.1"
       id="path58" /><path
       d="m 309.882,249.839 c -0.08,-0.151 -17.339,8.923 -38.544,20.263 -21.212,11.345 -38.337,20.66 -38.256,20.811 0.08,0.151 17.336,-8.921 38.548,-20.265 21.204,-11.341 38.333,-20.659 38.252,-20.809"
       style="fill:#dadbd8;fill-opacity:1;fill-rule:nonzero;stroke:none;stroke-width:0.1"
       id="path60" /><path
       d="m 307.838,399.078 h 2.5832 v 43.9832 h -2.5832 z"
       style="fill:#c3c5c2;fill-opacity:1;fill-rule:nonzero;stroke:none;stroke-width:0.1"
       id="path62" /><path
       d="M 248.899,345.872 H 369.36 c 0,0 -11.122,53.234 -61.143,53.234 -44.492,0 -59.318,-53.234 -59.318,-53.234"
       style="fill:#f2b23b;fill-opacity:1;fill-rule:nonzero;stroke:none;stroke-width:0.1"
       id="path64" /><path
       d="m 310.421,443.061 h -2.583 v -43.983 h 2.583 v 43.983"
       style="fill:#f2b23b;fill-opacity:1;fill-rule:nonzero;stroke:none;stroke-width:0.1"
       id="path66" /><path
       d="M 577.333,3.23281 C 577.333,3.08906 448.082,2.97188 288.68,2.97188 129.223,2.97188 0,3.08906 0,3.23281 c 0,0.14336 129.223,0.26016 288.68,0.26016 159.402,0 288.653,-0.1168 288.653,-0.26016"
       style="fill:#17282f;fill-opacity:1;fill-rule:nonzero;stroke:none;stroke-width:0.1"
       id="path68" /><path
       d="m 484.027,337.586 c -2.94,-0.677 -4.372,-4.06 -4.65,-7.064 -0.278,-3.005 0.105,-6.178 -1.157,-8.919 -1.421,-3.085 -4.813,-5.359 -4.926,-8.753 -0.068,-2.07 1.16,-4.016 1.102,-6.085 -0.097,-3.4 -3.564,-5.968 -3.746,-9.364 -0.13,-2.445 1.499,-4.791 1.107,-7.208 -0.306,-1.882 -1.77,-3.364 -2.389,-5.166 -1.234,-3.593 1.234,-7.548 4.449,-9.571 3.583,-2.253 8.171,-2.835 12.203,-1.547 4.032,1.288 7.432,4.423 9.045,8.336 1.779,4.319 1.39,9.182 1.003,13.837 -1.205,14.505 -2.1,29.036 -2.685,43.58"
       style="fill:#17282f;fill-opacity:1;fill-rule:nonzero;stroke:none;stroke-width:0.1"
       id="path82" /><path
       d="m 475.491,286.397 c -0.063,0.058 0.804,0.315 1.343,1.598 0.262,0.628 0.396,1.471 0.343,2.441 -0.034,0.977 -0.367,2.04 -0.73,3.238 -0.335,1.189 -0.771,2.567 -0.521,4.101 0.252,1.557 1.366,2.835 2.383,4.092 0.511,0.637 1.026,1.298 1.35,2.052 0.341,0.745 0.413,1.598 0.157,2.398 -0.517,1.634 -2.118,2.835 -2.853,4.722 -0.364,0.945 -0.368,1.983 -0.16,2.918 0.197,0.944 0.58,1.8 0.965,2.617 0.783,1.628 1.645,3.121 1.987,4.705 0.701,3.172 0.374,6.2 0.852,8.687 0.432,2.492 1.485,4.366 2.528,5.329 0.508,0.498 1,0.763 1.321,0.941 0.342,0.147 0.523,0.215 0.529,0.199 0.034,-0.056 -0.741,-0.294 -1.707,-1.283 -0.964,-0.975 -1.931,-2.808 -2.309,-5.247 -0.198,-1.213 -0.228,-2.577 -0.278,-4.041 -0.051,-1.463 -0.097,-3.052 -0.469,-4.694 -0.348,-1.664 -1.234,-3.216 -1.993,-4.815 -0.752,-1.571 -1.443,-3.413 -0.778,-5.135 0.635,-1.702 2.246,-2.911 2.851,-4.75 0.296,-0.915 0.199,-1.929 -0.187,-2.749 -0.367,-0.834 -0.912,-1.516 -1.433,-2.156 -1.046,-1.264 -2.092,-2.467 -2.331,-3.866 -0.25,-1.392 0.135,-2.735 0.451,-3.923 0.335,-1.19 0.658,-2.31 0.666,-3.327 0.026,-1.008 -0.143,-1.886 -0.447,-2.535 -0.302,-0.653 -0.715,-1.056 -1.025,-1.262 -0.308,-0.211 -0.505,-0.255 -0.505,-0.255"
       style="fill:#33535f;fill-opacity:1;fill-rule:nonzero;stroke:none;stroke-width:0.1"
       id="path84" /><path
       d="m 467.617,262.695 -9.026,-26.022 -37.644,-2.018 -6.277,-13.968 39.301,-3.976 c 7.837,-3.24 16.79,0.731 19.65,8.714 l 10.488,29.275 -16.492,7.995"
       style="fill:#e6e6e6;fill-opacity:1;fill-rule:nonzero;stroke:none;stroke-width:0.1"
       id="path86" /><path
       d="m 545.481,17.3629 c 0,0 -27.587,87.6191 -28.172,90.4631 -0.53,2.571 10.011,65.623 11.339,81.942 l -37.275,-1.39 c 0,0 -10e-4,-0.099 -0.003,-0.271 L 475.526,187.228 489.717,8.03398 h 17.153 l -1.701,59.45122 c 10.577,-28.3961 25.734,-57.334 25.734,-57.334 l 14.578,7.2117"
       style="fill:#e6e6e6;fill-opacity:1;fill-rule:nonzero;stroke:none;stroke-width:0.1"
       id="path88" /><path
       d="m 489.395,7.15117 -0.007,1.61094 17.569,0.76484 0.049,-6.64492 -1.084,-0.07187 c -4.823,-0.28321 -24.542,-1.0961 -27.77,-0.1293 -3.599,1.08008 11.243,4.47031 11.243,4.47031"
       style="fill:#f6b337;fill-opacity:1;fill-rule:nonzero;stroke:none;stroke-width:0.1"
       id="path94" /><path
       d="m 507.251,3.28398 c 0,-0.00703 -0.103,-0.01796 -0.301,-0.03281 -0.259,-0.01601 -0.543,-0.03515 -0.863,-0.05625 -0.863,-0.03984 -1.924,-0.08906 -3.176,-0.14804 -2.683,-0.10469 -6.392,-0.20274 -10.489,-0.22188 -4.099,-0.0168 -7.809,0.04805 -10.492,0.13008 -1.253,0.04805 -2.315,0.08789 -3.178,0.12109 -0.32,0.01797 -0.604,0.03399 -0.863,0.04766 -0.198,0.01328 -0.301,0.02422 -0.301,0.03008 0,0.0082 0.104,0.01211 0.302,0.01211 0.26,-0.00196 0.544,-0.00508 0.864,-0.00821 0.864,-0.01367 1.926,-0.03164 3.179,-0.05195 2.683,-0.04492 6.391,-0.08594 10.488,-0.06875 4.095,0.01875 7.802,0.0918 10.485,0.15977 1.253,0.03203 2.315,0.05898 3.178,0.08125 0.32,0.00585 0.605,0.01093 0.864,0.01601 0.199,7.8e-4 0.302,-0.00195 0.303,-0.01016"
       style="fill:#17282f;fill-opacity:1;fill-rule:nonzero;stroke:none;stroke-width:0.1"
       id="path96" /><path
       d="m 483.703,2.71914 c -0.065,-0.00898 -0.117,0.75 -0.599,1.51367 -0.469,0.77305 -1.123,1.15821 -1.087,1.21211 0.011,0.05313 0.762,-0.27383 1.267,-1.10078 0.514,-0.82031 0.471,-1.63828 0.419,-1.625"
       style="fill:#17282f;fill-opacity:1;fill-rule:nonzero;stroke:none;stroke-width:0.1"
       id="path98" /><path
       d="m 488.851,5.35391 c -0.049,-0.03203 -0.297,0.26797 -0.553,0.66914 -0.257,0.4 -0.425,0.75078 -0.375,0.78281 0.049,0.03125 0.297,-0.26875 0.553,-0.66875 0.257,-0.40195 0.424,-0.75117 0.375,-0.7832"
       style="fill:#17282f;fill-opacity:1;fill-rule:nonzero;stroke:none;stroke-width:0.1"
       id="path100" /><path
       d="m 490.264,6.10781 c -0.039,-0.04375 -0.316,0.13907 -0.617,0.40938 -0.303,0.26875 -0.516,0.52265 -0.477,0.56601 0.038,0.04375 0.315,-0.13906 0.617,-0.4082 0.302,-0.26992 0.516,-0.52305 0.477,-0.56719"
       style="fill:#17282f;fill-opacity:1;fill-rule:nonzero;stroke:none;stroke-width:0.1"
       id="path102" /><path
       d="m 491.152,7.76094 c 0.001,-0.05899 -0.407,-0.11211 -0.911,-0.11992 -0.505,-0.00704 -0.914,0.03398 -0.915,0.09296 -0.001,0.05821 0.407,0.11094 0.912,0.11915 0.504,0.00703 0.913,-0.03399 0.914,-0.09219"
       style="fill:#17282f;fill-opacity:1;fill-rule:nonzero;stroke:none;stroke-width:0.1"
       id="path104" /><path
       d="m 491.455,8.925 c 0.021,-0.05195 -0.424,-0.25391 -1.016,-0.3 -0.592,-0.04805 -1.063,0.08203 -1.051,0.13711 0.009,0.05977 0.471,0.02773 1.034,0.075 0.562,0.0418 1.015,0.14687 1.033,0.08789"
       style="fill:#17282f;fill-opacity:1;fill-rule:nonzero;stroke:none;stroke-width:0.1"
       id="path106" /><path
       d="m 488.253,6.87617 c 0.001,-0.02304 -0.43,-0.07734 -1.124,0.00391 -0.346,0.03984 -0.756,0.11992 -1.196,0.25898 -0.22,0.07696 -0.449,0.13477 -0.686,0.27891 -0.111,0.07422 -0.235,0.17812 -0.279,0.34922 -0.047,0.16797 0.042,0.35664 0.168,0.44883 1.072,0.56093 2.149,-0.03985 2.55,-0.59297 0.22,-0.28321 0.322,-0.55821 0.369,-0.74922 0.046,-0.19063 0.043,-0.30078 0.03,-0.30274 -0.039,-0.01406 -0.077,0.4418 -0.515,0.95586 -0.215,0.25196 -0.543,0.49805 -0.962,0.6211 -0.397,0.11601 -0.961,0.14492 -1.338,-0.0961 -0.178,-0.13281 -0.108,-0.34297 0.091,-0.45976 0.185,-0.11914 0.424,-0.19024 0.632,-0.26836 0.426,-0.14375 0.823,-0.23789 1.158,-0.29688 0.673,-0.11601 1.102,-0.11601 1.102,-0.15078"
       style="fill:#17282f;fill-opacity:1;fill-rule:nonzero;stroke:none;stroke-width:0.1"
       id="path108" /><path
       d="M 487.962,6.81992 C 487.946,6.8082 487.779,7.09414 487.829,7.6 c 0.027,0.24805 0.116,0.54219 0.304,0.82109 0.197,0.25 0.451,0.59493 0.933,0.57579 0.26,-0.03204 0.389,-0.32774 0.348,-0.5168 -0.019,-0.19805 -0.107,-0.36719 -0.188,-0.50195 -0.166,-0.28204 -0.355,-0.51016 -0.529,-0.68204 -0.351,-0.34609 -0.629,-0.47812 -0.641,-0.45703 -0.02,0.02696 0.223,0.20196 0.532,0.55899 0.153,0.17812 0.319,0.4039 0.468,0.675 0.153,0.23906 0.257,0.66484 -0.026,0.71484 -0.28,0.02695 -0.566,-0.25508 -0.737,-0.47891 -0.176,-0.24414 -0.273,-0.50585 -0.315,-0.73203 -0.084,-0.45781 0.021,-0.74882 -0.016,-0.75703"
       style="fill:#17282f;fill-opacity:1;fill-rule:nonzero;stroke:none;stroke-width:0.1"
       id="path110" /><path
       d="m 506.876,8.06719 c -0.003,-0.04024 -0.5,0.04492 -1.29,-0.05117 -0.782,-0.08985 -1.87,-0.41485 -2.813,-1.1711 -0.944,-0.75898 -1.496,-1.75 -1.752,-2.49492 -0.264,-0.75 -0.288,-1.25391 -0.328,-1.24883 -0.013,7.8e-4 -0.019,0.12696 -0.002,0.35196 0.018,0.22695 0.071,0.55273 0.187,0.94375 0.227,0.77617 0.778,1.82226 1.762,2.61328 0.984,0.78867 2.124,1.10078 2.931,1.15468 0.407,0.0293 0.737,0.01133 0.961,-0.0207 0.225,-0.03203 0.347,-0.06523 0.344,-0.07695"
       style="fill:#17282f;fill-opacity:1;fill-rule:nonzero;stroke:none;stroke-width:0.1"
       id="path112" /><path
       d="M 498.462,4.67695 C 498.47,4.62188 497.329,4.43984 495.909,4.43516 494.488,4.425 493.347,4.59492 493.354,4.65 c 0.005,0.06094 1.147,-0.01289 2.554,-0.00391 1.408,0.00586 2.547,0.0918 2.554,0.03086"
       style="fill:#17282f;fill-opacity:1;fill-rule:nonzero;stroke:none;stroke-width:0.1"
       id="path114" /><path
       d="m 501.887,4.71406 c 0.043,-0.04218 -0.093,-0.24218 -0.208,-0.5039 -0.119,-0.26211 -0.179,-0.49532 -0.238,-0.49102 -0.057,0 -0.092,0.275 0.044,0.57695 0.135,0.30274 0.365,0.46094 0.402,0.41797"
       style="fill:#17282f;fill-opacity:1;fill-rule:nonzero;stroke:none;stroke-width:0.1"
       id="path116" /><path
       d="m 503.173,6.32617 c 0.041,-0.04219 -0.071,-0.22304 -0.251,-0.40703 -0.181,-0.18398 -0.36,-0.30117 -0.402,-0.26016 -0.041,0.04102 0.07,0.22383 0.251,0.40821 0.179,0.18398 0.36,0.29883 0.402,0.25898"
       style="fill:#17282f;fill-opacity:1;fill-rule:nonzero;stroke:none;stroke-width:0.1"
       id="path118" /><path
       d="m 505.017,7.06719 c -0.012,-0.06016 -0.244,-0.05821 -0.5,-0.15 -0.259,-0.08516 -0.442,-0.22813 -0.488,-0.18906 -0.046,0.03203 0.1,0.28085 0.419,0.38906 0.318,0.11094 0.587,0.0039 0.569,-0.05"
       style="fill:#17282f;fill-opacity:1;fill-rule:nonzero;stroke:none;stroke-width:0.1"
       id="path120" /><path
       d="m 506.331,7.41797 c 0.022,-0.05508 -0.079,-0.14414 -0.223,-0.20078 -0.145,-0.05821 -0.28,-0.05938 -0.301,-0.00508 -0.022,0.05508 0.079,0.14492 0.223,0.20078 0.145,0.0582 0.28,0.05899 0.301,0.00508"
       style="fill:#17282f;fill-opacity:1;fill-rule:nonzero;stroke:none;stroke-width:0.1"
       id="path122" /><path
       d="m 530.56,8.7 -0.667,1.4672 15.715,7.8957 2.765,-6.0418 -0.959,-0.5109 C 543.131,9.27695 525.475,0.458203 522.134,0.0191406 518.408,-0.471094 530.56,8.7 530.56,8.7"
       style="fill:#f6b337;fill-opacity:1;fill-rule:nonzero;stroke:none;stroke-width:0.1"
       id="path124" /><path
       d="m 548.432,12.4879 c 0.004,-0.0059 -0.086,-0.059 -0.26,-0.1539 -0.229,-0.1211 -0.48,-0.2539 -0.765,-0.4031 -0.77,-0.3911 -1.718,-0.87 -2.837,-1.4368 C 542.166,9.29805 538.822,7.68984 535.093,5.99414 531.36,4.3 527.949,2.83984 525.467,1.81602 524.305,1.34609 523.32,0.948047 522.52,0.623828 c -0.3,-0.114844 -0.566,-0.216797 -0.808,-0.309765 -0.186,-0.069141 -0.284,-0.101954 -0.287,-0.094922 -0.002,0.007031 0.091,0.052734 0.271,0.134765 0.238,0.103125 0.497,0.217188 0.791,0.346094 0.794,0.34102 1.771,0.75898 2.922,1.25391 2.467,1.05898 5.867,2.54023 9.596,4.23398 3.728,1.69414 7.079,3.28008 9.5,4.44021 1.129,0.543 2.087,1.002 2.865,1.3758 0.291,0.1371 0.548,0.2582 0.782,0.368 0.181,0.082 0.277,0.1222 0.28,0.116"
       style="fill:#17282f;fill-opacity:1;fill-rule:nonzero;stroke:none;stroke-width:0.1"
       id="path126" /><path
       d="m 527.183,2.32617 c -0.056,-0.03398 -0.415,0.63594 -1.167,1.13594 -0.744,0.51289 -1.5,0.59687 -1.49,0.66094 -0.009,0.05312 0.809,0.06289 1.609,-0.48516 0.805,-0.53789 1.1,-1.30195 1.048,-1.31172"
       style="fill:#17282f;fill-opacity:1;fill-rule:nonzero;stroke:none;stroke-width:0.1"
       id="path128" /><path
       d="m 530.799,6.83906 c -0.031,-0.04922 -0.381,0.12305 -0.778,0.38282 -0.399,0.26093 -0.696,0.5121 -0.663,0.56015 0.032,0.05 0.38,-0.12187 0.779,-0.38203 0.397,-0.26094 0.694,-0.51211 0.662,-0.56094"
       style="fill:#17282f;fill-opacity:1;fill-rule:nonzero;stroke:none;stroke-width:0.1"
       id="path130" /><path
       d="m 531.779,8.10508 c -0.017,-0.05625 -0.344,-0.00195 -0.73,0.11992 -0.387,0.12188 -0.686,0.26602 -0.667,0.32188 0.018,0.05625 0.345,0.00195 0.73,-0.11993 0.386,-0.12187 0.685,-0.26601 0.667,-0.32187"
       style="fill:#17282f;fill-opacity:1;fill-rule:nonzero;stroke:none;stroke-width:0.1"
       id="path132" /><path
       d="m 531.913,9.97813 c 0.025,-0.0543 -0.326,-0.26993 -0.782,-0.48399 -0.458,-0.21328 -0.848,-0.34219 -0.873,-0.29023 -0.024,0.05312 0.326,0.26914 0.783,0.4832 0.457,0.21406 0.848,0.34299 0.872,0.29102"
       style="fill:#17282f;fill-opacity:1;fill-rule:nonzero;stroke:none;stroke-width:0.1"
       id="path134" /><path
       d="m 531.712,11.1629 c 0.04,-0.0391 -0.282,-0.4051 -0.805,-0.6891 -0.52,-0.2867 -1.003,-0.3609 -1.014,-0.3066 -0.016,0.0598 0.419,0.2199 0.913,0.4918 0.496,0.2699 0.865,0.55 0.906,0.5039"
       style="fill:#17282f;fill-opacity:1;fill-rule:nonzero;stroke:none;stroke-width:0.1"
       id="path136" /><path
       d="m 529.63,7.98281 c 0.011,-0.0207 -0.36,-0.24765 -1.026,-0.45664 -0.332,-0.10508 -0.74,-0.2 -1.199,-0.25429 -0.231,-0.01993 -0.463,-0.06094 -0.739,-0.02579 -0.133,0.02188 -0.288,0.06602 -0.397,0.20274 -0.113,0.13437 -0.109,0.34336 -0.031,0.48008 0.748,0.94922 1.977,0.84414 2.569,0.50312 0.317,-0.16797 0.522,-0.37812 0.643,-0.53203 0.12,-0.15703 0.162,-0.25703 0.152,-0.26406 -0.031,-0.02891 -0.252,0.37109 -0.862,0.66094 -0.299,0.14218 -0.698,0.23125 -1.131,0.17226 -0.41,-0.05703 -0.937,-0.26094 -1.182,-0.63594 -0.108,-0.19414 0.042,-0.35625 0.271,-0.38203 0.218,-0.03203 0.466,0 0.687,0.01485 0.448,0.04179 0.848,0.11914 1.178,0.2039 0.662,0.16914 1.052,0.34492 1.067,0.31289"
       style="fill:#17282f;fill-opacity:1;fill-rule:nonzero;stroke:none;stroke-width:0.1"
       id="path138" /><path
       d="m 529.388,7.81211 c -0.01,-0.01797 -0.279,0.175 -0.441,0.65703 -0.077,0.23672 -0.116,0.54297 -0.059,0.87383 0.078,0.30898 0.169,0.72693 0.615,0.90703 0.251,0.0781 0.837,-0.42695 0.878,-0.61602 0.062,-0.18789 -0.297,-0.09101 -0.314,-0.24882 -0.037,-0.32422 -0.116,-0.60899 -0.204,-0.83828 -0.178,-0.45899 -0.377,-0.69297 -0.397,-0.67969 -0.029,0.01797 0.121,0.27695 0.256,0.7289 0.066,0.225 0.126,0.5 0.15,0.80704 0.042,0.28085 -0.038,0.71167 -0.315,0.64177 -0.268,-0.09099 -0.413,-0.46404 -0.478,-0.73904 -0.059,-0.29375 -0.041,-0.57305 0.013,-0.79688 0.11,-0.45078 0.326,-0.67382 0.296,-0.69687"
       style="fill:#17282f;fill-opacity:1;fill-rule:nonzero;stroke:none;stroke-width:0.1"
       id="path140" /><path
       d="m 546.132,16.6961 c 0.013,-0.0371 -0.476,-0.1633 -1.156,-0.5742 -0.677,-0.402 -1.536,-1.1438 -2.087,-2.2199 -0.55,-1.079 -0.648,-2.209 -0.576,-2.9942 0.066,-0.793 0.251,-1.26171 0.213,-1.27382 -0.013,-0.0039 -0.071,0.10704 -0.147,0.3211 -0.076,0.21402 -0.162,0.53282 -0.216,0.93792 -0.111,0.8011 -0.036,1.98 0.537,3.1039 0.575,1.123 1.487,1.8761 2.201,2.2551 0.358,0.1941 0.667,0.3121 0.885,0.375 0.218,0.064 0.343,0.082 0.346,0.0691"
       style="fill:#17282f;fill-opacity:1;fill-rule:nonzero;stroke:none;stroke-width:0.1"
       id="path142" /><path
       d="m 539.844,10.1578 c 0.029,-0.0469 -0.936,-0.67889 -2.229,-1.26678 -1.293,-0.59102 -2.403,-0.90391 -2.42,-0.85118 -0.019,0.05899 1.052,0.45821 2.332,1.04414 1.282,0.58086 2.287,1.12812 2.317,1.07382"
       style="fill:#17282f;fill-opacity:1;fill-rule:nonzero;stroke:none;stroke-width:0.1"
       id="path144" /><path
       d="m 542.953,11.5949 c 0.057,-0.0211 0.015,-0.259 0.018,-0.5449 -0.003,-0.2871 0.039,-0.5238 -0.018,-0.5461 -0.051,-0.023 -0.195,0.2141 -0.195,0.5461 0,0.3309 0.143,0.568 0.195,0.5449"
       style="fill:#17282f;fill-opacity:1;fill-rule:nonzero;stroke:none;stroke-width:0.1"
       id="path146" /><path
       d="m 543.466,13.5922 c 0.055,-0.0211 0.027,-0.232 -0.062,-0.475 -0.088,-0.241 -0.206,-0.4211 -0.26,-0.4 -0.055,0.0187 -0.028,0.2316 0.061,0.4738 0.089,0.2422 0.206,0.4211 0.261,0.4012"
       style="fill:#17282f;fill-opacity:1;fill-rule:nonzero;stroke:none;stroke-width:0.1"
       id="path148" /><path
       d="m 544.846,15.0238 c 0.013,-0.0597 -0.199,-0.1539 -0.396,-0.3418 -0.201,-0.184 -0.308,-0.3898 -0.367,-0.3718 -0.056,0.0089 -0.024,0.2976 0.222,0.5257 0.245,0.2321 0.534,0.2442 0.541,0.1879"
       style="fill:#17282f;fill-opacity:1;fill-rule:nonzero;stroke:none;stroke-width:0.1"
       id="path150" /><path
       d="m 545.901,15.882 c 0.042,-0.041 -0.013,-0.164 -0.123,-0.275 -0.108,-0.1121 -0.23,-0.1679 -0.272,-0.1269 -0.042,0.041 0.013,0.164 0.121,0.275 0.109,0.1109 0.232,0.1679 0.274,0.1269"
       style="fill:#17282f;fill-opacity:1;fill-rule:nonzero;stroke:none;stroke-width:0.1"
       id="path152" /><path
       d="m 526.231,219.425 -2.926,35.698 15.028,-0.268 c 0,0 0.696,5.263 -1.518,16.809 -1.358,7.079 -6.073,11.422 -11.361,14.002 l 0.001,0.094 -0.458,0.12 c -6.725,3.148 -13.765,3.592 -13.765,3.592 l -18.447,-0.213 c 0,0 -14.092,1.758 -21.892,-8.288 -3.005,-3.869 -12.302,-30.355 -12.302,-30.355 l 22.141,-10.664 -2.107,14.687 c 0,0 0.419,-10.648 1.778,-14.022 0.757,-1.88 2.95,-7.716 2.95,-7.716 l -0.287,-17.615 43.165,4.139"
       style="fill:#003380;fill-opacity:1;fill-rule:nonzero;stroke:none;stroke-width:0.1"
       id="path154" /><path
       d="m 516.053,260.305 -2.737,-11.666 h 25.831 l -1.7,19.558 -21.394,-7.892"
       style="fill:#162d50;fill-opacity:1;fill-rule:nonzero;stroke:none;stroke-width:0.1"
       id="path156" /><path
       d="m 514.94,268.293 c -0.079,-0.003 -0.106,-1.137 -0.086,-2.968 0.019,-1.83 0.086,-4.357 0.194,-7.147 0.108,-2.79 0.238,-5.315 0.36,-7.142 0.122,-1.826 0.238,-2.954 0.317,-2.951 0.078,0.003 0.105,1.137 0.086,2.967 -0.02,1.83 -0.085,4.358 -0.194,7.148 -0.108,2.79 -0.238,5.315 -0.361,7.141 -0.122,1.826 -0.237,2.954 -0.316,2.952"
       style="fill:#17282f;fill-opacity:1;fill-rule:nonzero;stroke:none;stroke-width:0.1"
       id="path160" /><path
       d="m 512.689,216.726 c -1.455,0 -2.824,0.358 -4.108,1.007 l 11.87,1.138 c -3.031,-2.074 -7.135,-2.123 -7.135,-2.123 -0.211,-0.015 -0.42,-0.022 -0.627,-0.022"
       style="fill:#a7a9a8;fill-opacity:1;fill-rule:nonzero;stroke:none;stroke-width:0.1"
       id="path162" /><path
       d="m 508.581,217.733 c -12.545,6.338 -17.146,40.456 -17.146,40.456 l 31.483,-34.624 v -1.901 c -0.58,-1.2 -1.465,-2.107 -2.467,-2.793 l -11.87,-1.138"
       style="fill:#162d50;fill-opacity:1;fill-rule:nonzero;stroke:none;stroke-width:0.1"
       id="path164" /><path
       d="m 483.353,232.901 c -0.035,-0.012 -0.188,0.343 -0.437,0.996 -0.25,0.652 -0.584,1.607 -0.97,2.795 -0.771,2.375 -1.724,5.7 -2.47,9.445 -0.743,3.747 -1.106,7.193 -1.224,9.691 -0.061,1.249 -0.079,2.26 -0.061,2.959 0.014,0.699 0.04,1.085 0.076,1.086 0.082,0.001 0.138,-1.541 0.352,-4.02 0.212,-2.479 0.63,-5.891 1.367,-9.615 0.743,-3.721 1.633,-7.044 2.313,-9.44 0.317,-1.111 0.587,-2.058 0.809,-2.837 0.19,-0.672 0.279,-1.049 0.245,-1.06"
       style="fill:#17282f;fill-opacity:1;fill-rule:nonzero;stroke:none;stroke-width:0.1"
       id="path174" /><path
       d="m 489.878,220.668 c -0.138,-0.041 -0.537,0.877 -0.892,2.051 -0.355,1.175 -0.532,2.161 -0.394,2.203 0.138,0.041 0.537,-0.877 0.892,-2.052 0.356,-1.174 0.532,-2.16 0.394,-2.202"
       style="fill:#17282f;fill-opacity:1;fill-rule:nonzero;stroke:none;stroke-width:0.1"
       id="path176" /><path
       d="m 492.109,220.831 c -0.132,-0.034 -0.568,1.344 -0.589,3.112 -0.031,1.767 0.364,3.158 0.498,3.127 0.148,-0.027 -0.008,-1.414 0.022,-3.12 0.02,-1.705 0.217,-3.088 0.069,-3.119"
       style="fill:#17282f;fill-opacity:1;fill-rule:nonzero;stroke:none;stroke-width:0.1"
       id="path178" /><path
       d="m 481.182,239.465 c -0.064,-0.129 -5.217,2.316 -11.508,5.459 -6.293,3.145 -11.341,5.798 -11.276,5.926 0.064,0.129 5.216,-2.315 11.509,-5.46 6.29,-3.143 11.339,-5.797 11.275,-5.925"
       style="fill:#17282f;fill-opacity:1;fill-rule:nonzero;stroke:none;stroke-width:0.1"
       id="path180" /><path
       d="m 490.262,285.808 c 0.115,5.059 0.143,10.386 0.143,10.386 0,0 -6.488,1.251 -7.619,9.789 -1.078,8.142 1.938,27.247 1.938,27.247 9.478,3.583 19.328,0.335 25.822,-7.345 l -1.612,-41.074 c -0.187,-4.768 -4.436,-8.405 -9.54,-8.166 -5.156,0.242 -9.242,4.342 -9.132,9.163"
       style="fill:#e6e6e6;fill-opacity:1;fill-rule:nonzero;stroke:none;stroke-width:0.1"
       id="path182" /><path
       d="m 484.232,317.961 c -0.036,-0.575 0.422,-1.08 1.022,-1.127 0.6,-0.048 1.114,0.379 1.149,0.954 0.036,0.575 -0.422,1.08 -1.021,1.128 -0.601,0.048 -1.115,-0.38 -1.15,-0.955"
       style="fill:#17282f;fill-opacity:1;fill-rule:nonzero;stroke:none;stroke-width:0.1"
       id="path184" /><path
       d="m 483.825,319.394 c 0.132,-0.146 0.974,0.445 2.147,0.411 1.173,-0.017 2.018,-0.643 2.149,-0.502 0.065,0.062 -0.066,0.322 -0.434,0.605 -0.363,0.281 -0.986,0.562 -1.716,0.577 -0.732,0.016 -1.353,-0.238 -1.714,-0.504 -0.367,-0.267 -0.496,-0.521 -0.432,-0.587"
       style="fill:#17282f;fill-opacity:1;fill-rule:nonzero;stroke:none;stroke-width:0.1"
       id="path186" /><path
       d="m 496.137,317.22 c -0.035,-0.575 0.423,-1.079 1.023,-1.128 0.599,-0.047 1.115,0.379 1.15,0.955 0.035,0.575 -0.423,1.08 -1.023,1.128 -0.599,0.048 -1.115,-0.38 -1.15,-0.955"
       style="fill:#17282f;fill-opacity:1;fill-rule:nonzero;stroke:none;stroke-width:0.1"
       id="path188" /><path
       d="m 496.058,318.652 c 0.132,-0.146 0.974,0.444 2.147,0.411 1.172,-0.017 2.018,-0.643 2.15,-0.503 0.063,0.063 -0.067,0.322 -0.436,0.605 -0.362,0.282 -0.984,0.562 -1.716,0.578 -0.73,0.015 -1.352,-0.238 -1.713,-0.505 -0.367,-0.267 -0.497,-0.521 -0.432,-0.586"
       style="fill:#17282f;fill-opacity:1;fill-rule:nonzero;stroke:none;stroke-width:0.1"
       id="path190" /><path
       d="m 491.575,310.06 c 0.007,0.066 -0.719,0.211 -1.897,0.392 -0.299,0.039 -0.581,0.106 -0.626,0.312 -0.066,0.218 0.068,0.538 0.223,0.883 0.3,0.717 0.615,1.47 0.945,2.258 1.314,3.217 2.274,5.865 2.143,5.917 -0.13,0.052 -1.3,-2.513 -2.615,-5.73 -0.316,-0.794 -0.619,-1.55 -0.907,-2.273 -0.123,-0.338 -0.328,-0.719 -0.187,-1.172 0.076,-0.226 0.291,-0.394 0.482,-0.451 0.19,-0.064 0.359,-0.071 0.507,-0.084 1.188,-0.095 1.925,-0.119 1.932,-0.052"
       style="fill:#17282f;fill-opacity:1;fill-rule:nonzero;stroke:none;stroke-width:0.1"
       id="path192" /><path
       d="m 490.405,296.194 c 0,0 5.711,-0.516 11.466,2.745 0,0 -2.913,-5.77 -11.402,-4.755 l -0.064,2.01"
       style="fill:#999999;fill-opacity:1;fill-rule:nonzero;stroke:none;stroke-width:0.1"
       id="path194" /><path
       d="m 499.814,322.037 c -0.241,-0.367 -1.133,-0.204 -2.133,-0.024 -0.996,0.201 -1.886,0.378 -1.975,0.808 -0.099,0.412 0.934,0.982 2.268,0.727 1.334,-0.253 2.084,-1.164 1.84,-1.511"
       style="fill:#17282f;fill-opacity:1;fill-rule:nonzero;stroke:none;stroke-width:0.1"
       id="path196" /><path
       d="m 488.147,323.759 c -0.091,-0.427 -1.047,-0.583 -2.149,-0.64 -1.103,-0.045 -2.068,0.023 -2.198,0.441 -0.132,0.404 0.8,1.061 2.126,1.12 1.326,0.063 2.314,-0.506 2.221,-0.921"
       style="fill:#17282f;fill-opacity:1;fill-rule:nonzero;stroke:none;stroke-width:0.1"
       id="path198" /><path
       d="m 491.594,307.251 c -0.248,0.068 -0.526,-0.072 -0.65,-0.297 -0.148,-0.267 -0.08,-0.635 0.154,-0.832 0.233,-0.197 0.607,-0.202 0.845,-0.012 0.24,0.191 0.317,0.556 0.177,0.828 -0.14,0.271 -0.483,0.419 -0.777,0.334"
       style="fill:#999999;fill-opacity:1;fill-rule:nonzero;stroke:none;stroke-width:0.1"
       id="path200" /><path
       d="m 491.601,307.355 c 0.053,0.047 -0.187,0.335 -0.7,0.224 -0.236,-0.053 -0.547,-0.266 -0.642,-0.629 -0.093,-0.342 -0.008,-0.786 0.354,-1.063 0.375,-0.265 0.827,-0.21 1.125,-0.007 0.319,0.21 0.41,0.594 0.36,0.834 -0.103,0.527 -0.493,0.611 -0.504,0.537 -0.044,-0.066 0.136,-0.248 0.102,-0.56 -0.018,-0.153 -0.09,-0.295 -0.238,-0.367 -0.145,-0.08 -0.375,-0.079 -0.507,0.022 -0.138,0.097 -0.209,0.316 -0.18,0.484 0.021,0.167 0.133,0.293 0.269,0.37 0.278,0.157 0.525,0.083 0.561,0.155"
       style="fill:#000000;fill-opacity:1;fill-rule:nonzero;stroke:none;stroke-width:0.1"
       id="path202" /><path
       d="m 506.616,315.853 c -1.011,-2.344 -3.48,-4.15 -3.137,-6.68 0.22,-1.634 1.268,-3.157 1.064,-4.792 -0.256,-2.055 -2.39,-3.479 -2.691,-5.526 -0.371,-2.512 2.072,-4.464 3.048,-6.808 1.421,-3.414 -0.397,-7.252 -0.44,-10.949 -0.065,-5.663 4.751,-10.953 10.395,-11.418 2.283,-0.188 4.854,0.501 6.038,2.462 0.976,1.619 0.781,3.674 1.367,5.471 0.872,2.677 3.423,4.635 3.961,7.398 0.98,5.037 -5.108,9.205 -4.707,14.321 0.171,2.185 1.52,4.092 2.095,6.208 0.75,2.772 0.062,5.894 -1.787,8.092 -1.502,1.787 -3.681,2.962 -4.961,4.914 -1.451,2.214 -1.501,5.021 -2.048,7.611 -1.333,6.31 -6.073,11.793 -12.124,14.025 -6.052,2.232 -13.216,1.14 -18.329,-2.794 0,0 -1.454,-6.591 5.312,-7.693 6.765,-1.102 9.9,0.17 10.663,-2.542 0,0 -0.77,-3.168 2.026,-6.193 2.798,-3.026 5.426,-2.393 4.255,-5.107"
       style="fill:#17282f;fill-opacity:1;fill-rule:nonzero;stroke:none;stroke-width:0.1"
       id="path204" /><path
       d="m 517.412,270.141 c -0.003,-0.018 -0.214,0.005 -0.617,0.065 -0.402,0.062 -0.992,0.196 -1.721,0.464 -1.445,0.528 -3.491,1.678 -5.235,3.875 -0.866,1.088 -1.678,2.409 -2.225,3.961 -0.56,1.543 -0.88,3.292 -0.91,5.134 -0.043,1.844 0.219,3.776 0.722,5.71 0.251,0.969 0.577,1.934 0.957,2.893 0.374,0.963 0.834,1.891 1.098,2.873 0.284,0.979 0.246,1.979 -0.01,2.933 -0.261,0.955 -0.705,1.851 -1.138,2.738 -0.435,0.886 -0.879,1.77 -1.165,2.71 -0.291,0.932 -0.399,1.937 -0.21,2.874 0.399,1.884 1.543,3.278 2.218,4.708 0.715,1.418 0.938,2.915 0.905,4.26 -0.121,2.724 -1.282,4.738 -2.229,5.899 -0.989,1.163 -1.738,1.605 -1.7,1.654 0,0 0.793,-0.374 1.853,-1.522 1.016,-1.146 2.27,-3.188 2.444,-6.015 0.06,-1.393 -0.153,-2.971 -0.884,-4.464 -0.69,-1.483 -1.794,-2.887 -2.135,-4.611 -0.352,-1.737 0.47,-3.526 1.361,-5.267 0.436,-0.888 0.898,-1.807 1.18,-2.828 0.28,-1.014 0.321,-2.159 0.012,-3.204 -0.284,-1.049 -0.753,-1.989 -1.119,-2.93 -0.374,-0.94 -0.696,-1.885 -0.945,-2.832 -0.499,-1.891 -0.764,-3.777 -0.734,-5.572 0.011,-3.604 1.249,-6.756 2.943,-8.874 1.661,-2.168 3.624,-3.338 5.021,-3.914 1.415,-0.573 2.276,-0.659 2.263,-0.718"
       style="fill:#33535f;fill-opacity:1;fill-rule:nonzero;stroke:none;stroke-width:0.1"
       id="path206" /><path
       d="m 516.416,320.602 c 0.003,-0.033 -0.524,-0.128 -1.49,-0.222 -0.962,-0.08 -2.383,-0.191 -4.118,0.108 -1.695,0.31 -3.84,1.143 -5.198,3.154 -0.666,1.009 -0.93,2.23 -1.364,3.357 -0.408,1.14 -1.197,2.127 -2.278,2.811 -2.188,1.386 -4.762,1.557 -7.014,1.831 -2.263,0.255 -4.388,0.735 -5.828,1.816 -1.451,1.032 -2.195,2.373 -2.387,3.339 -0.108,0.483 -0.099,0.872 -0.077,1.127 0.036,0.257 0.064,0.388 0.082,0.386 0.064,-0.001 -0.069,-0.55 0.193,-1.464 0.241,-0.904 0.993,-2.14 2.4,-3.087 1.387,-0.982 3.42,-1.412 5.674,-1.64 2.231,-0.252 4.896,-0.391 7.24,-1.871 1.156,-0.721 2.052,-1.854 2.471,-3.064 0.445,-1.19 0.694,-2.362 1.292,-3.281 1.219,-1.861 3.236,-2.712 4.864,-3.052 1.67,-0.337 3.077,-0.285 4.036,-0.268 0.963,0.031 1.498,0.058 1.502,0.02"
       style="fill:#33535f;fill-opacity:1;fill-rule:nonzero;stroke:none;stroke-width:0.1"
       id="path208" /><path
       d="m 513.935,328.746 c 0.006,-0.026 -0.404,-0.153 -1.172,-0.173 -0.762,-0.021 -1.903,0.114 -3.157,0.711 -0.626,0.297 -1.268,0.723 -1.858,1.292 -0.6,0.566 -1.092,1.298 -1.552,2.07 -0.902,1.521 -1.769,3.397 -3.639,4.173 -1.832,0.785 -3.85,0.61 -5.603,0.492 -1.77,-0.175 -3.429,-0.226 -4.782,0.04 -1.362,0.237 -2.384,0.801 -2.95,1.323 -0.287,0.259 -0.482,0.489 -0.589,0.66 -0.112,0.169 -0.163,0.26 -0.149,0.271 0.042,0.032 0.281,-0.322 0.867,-0.774 0.582,-0.451 1.565,-0.934 2.882,-1.117 1.317,-0.21 2.902,-0.126 4.68,0.075 1.762,0.139 3.84,0.36 5.855,-0.494 0.996,-0.424 1.809,-1.172 2.387,-1.983 0.589,-0.811 1.011,-1.659 1.455,-2.424 0.442,-0.765 0.895,-1.465 1.442,-2.005 0.541,-0.546 1.135,-0.967 1.719,-1.27 1.172,-0.608 2.257,-0.797 2.997,-0.837 0.744,-0.043 1.161,0.015 1.167,-0.03"
       style="fill:#33535f;fill-opacity:1;fill-rule:nonzero;stroke:none;stroke-width:0.1"
       id="path210" /><path
       d="m 520.397,272.299 c -0.051,0.023 0.267,0.666 0.636,1.897 0.367,1.227 0.731,3.072 0.666,5.36 -0.078,2.274 -0.625,5.024 -2.131,7.636 -0.732,1.31 -1.843,2.477 -2.749,3.915 -0.45,0.718 -0.837,1.523 -1.007,2.414 -0.167,0.892 -0.066,1.839 0.221,2.699 0.561,1.726 1.566,3.181 1.782,4.768 0.267,1.592 -0.537,3.044 -1.298,4.335 -0.385,0.658 -0.771,1.308 -1.071,1.988 -0.299,0.68 -0.49,1.396 -0.565,2.088 -0.152,1.39 0.01,2.667 0.113,3.813 0.288,2.284 0.076,4.161 -0.474,5.314 -0.534,1.168 -1.232,1.518 -1.18,1.565 l 0.121,-0.057 c 0.073,-0.048 0.19,-0.111 0.318,-0.228 0.267,-0.217 0.623,-0.602 0.923,-1.191 0.633,-1.168 0.905,-3.13 0.658,-5.434 -0.081,-1.151 -0.214,-2.413 -0.051,-3.729 0.133,-1.329 0.818,-2.584 1.621,-3.884 0.389,-0.659 0.8,-1.346 1.089,-2.125 0.296,-0.774 0.43,-1.658 0.3,-2.525 -0.243,-1.749 -1.273,-3.229 -1.79,-4.855 -0.268,-0.811 -0.354,-1.645 -0.208,-2.448 0.152,-0.801 0.503,-1.549 0.932,-2.239 0.857,-1.382 1.975,-2.572 2.73,-3.944 1.535,-2.715 2.052,-5.544 2.085,-7.867 0.017,-2.339 -0.411,-4.206 -0.841,-5.43 -0.225,-0.611 -0.413,-1.079 -0.576,-1.381 -0.151,-0.307 -0.238,-0.463 -0.254,-0.455"
       style="fill:#33535f;fill-opacity:1;fill-rule:nonzero;stroke:none;stroke-width:0.1"
       id="path212" /><path
       d="m 479.662,85.973 c 0,0 -6.734,63.843 -7.121,87.432 -0.387,23.591 10.607,46.867 10.607,46.867 l 43.083,1.822 c 0,0 8.515,-23.936 8.668,-33.989 0.296,-19.539 -5.192,-38.834 -4.559,-54.333 l 1.44,-47.799"
       style="fill:#162d50;fill-opacity:1;fill-rule:nonzero;stroke:none;stroke-width:0.1"
       id="path214" /><path
       d="m 533.222,164.458 c 0.009,-0.015 -0.236,-0.199 -0.703,-0.532 -0.12,-0.085 -0.251,-0.178 -0.393,-0.277 -0.135,-0.115 -0.266,-0.258 -0.417,-0.403 -0.303,-0.291 -0.655,-0.62 -0.96,-1.075 -1.391,-1.704 -2.406,-4.747 -3.37,-8.545 -0.532,-1.886 -1.07,-4.002 -2.182,-6.073 -0.297,-0.506 -0.564,-1.042 -0.956,-1.513 -0.187,-0.239 -0.357,-0.497 -0.562,-0.727 l -0.664,-0.663 c -0.9,-0.885 -2.039,-1.552 -3.24,-2.079 -2.412,-1.057 -5.134,-1.558 -7.622,-2.806 -2.503,-1.219 -4.379,-3.582 -5.529,-6.303 -1.213,-2.71 -1.949,-5.555 -2.961,-8.211 -0.994,-2.635 -2.347,-5.2 -4.497,-6.82 -2.133,-1.679 -4.768,-2.063 -7.051,-2.21 -2.319,-0.135 -4.467,-0.069 -6.394,-0.36 -1.919,-0.266 -3.62,-0.875 -4.822,-1.82 -1.207,-0.948 -1.911,-2.137 -2.242,-3.155 -0.341,-1.03 -0.28,-1.899 -0.167,-2.452 0.112,-0.562 0.27,-0.83 0.235,-0.845 0,0 -0.189,0.253 -0.336,0.82 -0.151,0.56 -0.249,1.459 0.075,2.536 0.313,1.066 1.014,2.312 2.253,3.324 1.243,1.012 2.992,1.66 4.949,1.956 1.962,0.32 4.134,0.274 6.42,0.427 2.261,0.164 4.783,0.56 6.788,2.161 2.031,1.544 3.336,4.011 4.313,6.62 0.994,2.625 1.725,5.474 2.963,8.243 1.161,2.768 3.151,5.282 5.773,6.544 2.586,1.284 5.31,1.769 7.661,2.792 1.171,0.507 2.259,1.137 3.119,1.973 l 0.637,0.626 c 0.198,0.219 0.362,0.466 0.544,0.695 0.379,0.447 0.642,0.966 0.934,1.452 1.095,1.999 1.654,4.092 2.206,5.967 1.007,3.777 2.093,6.87 3.566,8.572 0.323,0.453 0.695,0.779 1.015,1.063 0.159,0.141 0.298,0.282 0.44,0.391 0.149,0.094 0.287,0.181 0.413,0.261 0.494,0.309 0.755,0.462 0.764,0.446"
       style="fill:#fafaf9;fill-opacity:1;fill-rule:nonzero;stroke:none;stroke-width:0.1"
       id="path216" /><path
       d="m 533.487,194.002 c 0.018,10e-4 0.038,-0.292 0.056,-0.855 0.009,-0.562 -0.059,-1.396 -0.299,-2.443 -0.5,-2.081 -2.02,-4.939 -4.867,-7.525 -1.406,-1.299 -3.104,-2.555 -5.045,-3.686 -1.931,-1.145 -4.06,-2.235 -6.242,-3.468 -2.174,-1.237 -4.416,-2.634 -6.386,-4.491 -1.996,-1.834 -3.491,-4.244 -4.837,-6.797 -1.36,-2.548 -2.564,-5.143 -4.194,-7.389 -0.809,-1.122 -1.723,-2.147 -2.734,-3.024 -1.018,-0.871 -2.126,-1.579 -3.252,-2.166 -2.26,-1.173 -4.562,-1.898 -6.695,-2.566 -2.137,-0.661 -4.132,-1.246 -5.875,-1.977 -1.746,-0.72 -3.259,-1.535 -4.481,-2.4 -1.223,-0.865 -2.153,-1.773 -2.813,-2.594 -1.332,-1.649 -1.612,-2.844 -1.687,-2.804 -0.017,0.005 0.078,0.283 0.277,0.81 0.232,0.511 0.589,1.272 1.251,2.119 0.647,0.855 1.574,1.802 2.802,2.705 1.227,0.903 2.751,1.752 4.509,2.503 1.758,0.762 3.761,1.372 5.887,2.05 2.123,0.684 4.398,1.42 6.602,2.579 1.098,0.58 2.171,1.274 3.15,2.118 0.975,0.852 1.857,1.846 2.645,2.945 1.588,2.197 2.781,4.771 4.148,7.336 1.351,2.564 2.89,5.044 4.947,6.923 2.025,1.898 4.307,3.305 6.501,4.538 2.201,1.228 4.334,2.302 6.258,3.423 1.932,1.104 3.614,2.322 5.016,3.584 2.834,2.514 4.367,5.279 4.92,7.306 0.537,2.047 0.358,3.251 0.438,3.246"
       style="fill:#fafaf9;fill-opacity:1;fill-rule:nonzero;stroke:none;stroke-width:0.1"
       id="path218" /><path
       d="m 472.759,170.025 c -0.009,-0.003 -0.038,0.061 -0.088,0.193 -0.043,0.134 -0.135,0.326 -0.193,0.596 -0.122,0.534 -0.199,1.378 0.1,2.397 0.556,2.036 2.768,4.569 6.332,5.839 1.774,0.609 3.786,0.977 5.882,1.525 2.072,0.559 4.33,1.341 6.017,3.074 0.837,0.855 1.545,1.873 2.133,2.992 0.575,1.129 1.048,2.341 1.495,3.592 0.896,2.494 1.648,5.205 3.17,7.668 1.511,2.483 3.974,4.208 6.523,5.072 2.543,0.934 5.106,1.348 7.485,1.897 2.386,0.519 4.616,1.191 6.509,2.216 1.865,1.06 3.352,2.471 4.404,3.967 2.158,3 2.722,6.072 2.799,8.101 0.047,2.063 -0.281,3.186 -0.213,3.196 0,0 0.4,-1.104 0.415,-3.2 -0.015,-2.06 -0.529,-5.207 -2.701,-8.31 -1.06,-1.547 -2.572,-3.018 -4.494,-4.131 -1.94,-1.074 -4.217,-1.772 -6.612,-2.307 -2.391,-0.564 -4.94,-0.989 -7.414,-1.907 -2.49,-0.857 -4.803,-2.49 -6.26,-4.87 -1.469,-2.373 -2.224,-5.053 -3.131,-7.563 -0.453,-1.26 -0.938,-2.493 -1.533,-3.651 -0.61,-1.151 -1.354,-2.211 -2.237,-3.103 -1.791,-1.817 -4.15,-2.604 -6.246,-3.15 -2.126,-0.537 -4.126,-0.881 -5.875,-1.458 -3.467,-1.183 -5.668,-3.611 -6.254,-5.549 -0.317,-0.972 -0.278,-1.788 -0.192,-2.317 0.112,-0.526 0.202,-0.802 0.179,-0.809"
       style="fill:#fafaf9;fill-opacity:1;fill-rule:nonzero;stroke:none;stroke-width:0.1"
       id="path220" /><path
       d="m 529.782,116.042 c 0.018,0.002 0.041,-0.213 0.07,-0.627 0.023,-0.413 -0.009,-1.032 -0.185,-1.805 -0.352,-1.541 -1.542,-3.649 -3.779,-5.403 -1.102,-0.888 -2.435,-1.703 -3.966,-2.354 -1.526,-0.655 -3.215,-1.173 -4.979,-1.722 -1.761,-0.55 -3.61,-1.126 -5.408,-1.975 -1.81,-0.829 -3.482,-2.043 -4.922,-3.59 -1.459,-1.5281 -2.717,-3.198 -4.114,-4.6711 -1.391,-1.4828 -2.971,-2.7039 -4.608,-3.607 -3.291,-1.8168 -6.703,-2.441 -9.511,-2.4719 -2.828,-0.032 -5.073,0.5629 -6.545,1.0871 -0.743,0.259 -1.295,0.518 -1.661,0.7117 -0.369,0.1852 -0.559,0.2883 -0.551,0.3051 0.008,0.016 0.213,-0.057 0.595,-0.2097 0.377,-0.1622 0.937,-0.3891 1.682,-0.6153 1.476,-0.4597 3.698,-0.9879 6.474,-0.9109 2.755,0.0781 6.087,0.7281 9.282,2.523 1.594,0.895 3.114,2.0809 4.472,3.5379 1.367,1.4512 2.621,3.1199 4.108,4.6813 1.465,1.5778 3.227,2.8528 5.08,3.6908 1.847,0.864 3.72,1.434 5.487,1.972 1.767,0.537 3.448,1.037 4.952,1.661 1.501,0.619 2.815,1.398 3.904,2.246 2.213,1.678 3.408,3.683 3.813,5.165 0.394,1.497 0.238,2.383 0.31,2.381"
       style="fill:#fafaf9;fill-opacity:1;fill-rule:nonzero;stroke:none;stroke-width:0.1"
       id="path222" /><path
       d="m 524.646,248.836 -8.33,-0.197 c -0.547,-2.806 -1.884,-4.726 -1.884,-4.726 -6.966,12.092 -12.367,28.292 -13.708,34.803 0.196,0.651 0.427,1.37 0.716,2.175 0.333,0.928 0.047,2.685 -0.11,3.661 -0.234,1.449 -0.639,3.4 -0.761,4.303 -0.371,2.751 -0.814,3.183 -1.774,2.872 -1.305,-0.423 0.535,-7.727 -0.535,-7.885 -0.575,-0.085 -1.278,2.417 -1.481,4.47 -0.204,2.053 -1.133,8.368 -1.812,8.789 -0.994,0.617 -1.861,-0.359 -1.61,-2.403 0.254,-2.07 0.575,-8.24 -0.51,-8.324 -1.069,-0.082 -1.966,10.388 -1.966,10.388 0,0 0.169,2.278 -1.087,2.224 -2.266,-0.099 -0.495,-11.137 -0.302,-12.182 0.136,-0.728 -1.041,-0.861 -1.145,-0.072 -0.106,0.813 -0.653,10.471 -2.96,10.393 -1.771,-0.06 1.371,-9.096 0.377,-11.191 -0.994,-2.094 -1.684,7.114 -3.375,6.987 -0.629,-0.047 -1.094,-0.17 0.062,-5.381 0.622,-2.801 2.447,-7.951 4.043,-12.214 2.679,-14.451 14.436,-60.677 32.87,-52.215 10.314,4.735 14.5,25.72 14.5,25.72 l -9.218,0.005"
       style="fill:#e6e6e6;fill-opacity:1;fill-rule:nonzero;stroke:none;stroke-width:0.1"
       id="path224" /><path
       d="m 488.664,286.278 c 0,0 0.084,-0.016 0.241,0.033 0.14,0.043 0.419,0.219 0.376,0.577 -0.024,0.621 -0.122,1.525 -0.265,2.694 -0.107,1.177 -0.459,2.589 -0.46,4.261 -0.014,0.837 0.008,1.737 0.056,2.691 0.031,0.477 0.04,0.972 0.145,1.44 0.079,0.453 0.382,0.971 0.732,0.909 l 0.039,-0.007 0.016,0.001 c 0.356,0.016 0.634,-0.261 0.748,-0.684 0.125,-0.406 0.157,-0.884 0.131,-1.339 l -10e-4,-0.019 0.002,-0.013 c 0.233,-2.559 0.485,-5.359 1.068,-8.35 0.082,-0.373 0.165,-0.749 0.281,-1.128 0.057,-0.19 0.125,-0.381 0.208,-0.573 0.053,-0.099 0.088,-0.193 0.17,-0.297 0.071,-0.087 0.161,-0.239 0.418,-0.262 0.415,0.031 0.535,0.345 0.629,0.525 0.089,0.208 0.145,0.412 0.187,0.615 0.086,0.407 0.129,0.812 0.16,1.221 0.111,1.63 0.054,3.295 -0.066,5.001 -0.039,0.863 -0.251,1.724 -0.105,2.505 0.07,0.385 0.23,0.773 0.492,0.933 0.128,0.078 0.273,0.095 0.431,0.055 l 0.237,-0.103 c 0.066,-0.064 0.051,-0.035 0.111,-0.148 0.334,-0.715 0.506,-1.648 0.693,-2.514 0.178,-0.884 0.331,-1.786 0.473,-2.698 0.14,-0.912 0.269,-1.835 0.378,-2.765 0.09,-0.929 0.224,-1.905 0.461,-2.844 0.12,-0.473 0.253,-0.945 0.451,-1.413 0.101,-0.235 0.207,-0.468 0.412,-0.707 0.074,-0.102 0.308,-0.293 0.599,-0.218 0.282,0.094 0.362,0.318 0.408,0.449 0.162,0.575 0.114,1.053 0.106,1.556 -0.021,0.496 -0.062,0.987 -0.104,1.477 -0.072,0.842 -0.152,1.675 -0.181,2.497 -0.013,0.409 -0.014,0.817 0.03,1.203 0.025,0.188 0.057,0.381 0.121,0.521 l 0.097,0.149 0.039,0.025 0.129,0.037 c 0.664,0.274 0.884,-0.649 1.061,-1.393 0.153,-0.775 0.251,-1.577 0.407,-2.366 0.264,-1.575 0.599,-3.14 0.775,-4.644 0.073,-0.746 0.126,-1.521 -0.088,-2.153 -0.236,-0.723 -0.47,-1.438 -0.702,-2.145 l -0.02,-0.064 0.014,-0.067 c 1.219,-5.377 2.908,-10.188 4.475,-14.459 1.583,-4.267 3.166,-7.955 4.563,-10.971 1.393,-3.018 2.643,-5.344 3.506,-6.93 0.438,-0.752 0.784,-1.347 1.04,-1.788 0.242,-0.403 0.373,-0.609 0.387,-0.601 0.014,0.008 -0.092,0.228 -0.308,0.646 -0.238,0.451 -0.558,1.058 -0.963,1.826 -0.813,1.611 -2.014,3.954 -3.361,6.985 -1.351,3.027 -2.892,6.722 -4.438,10.989 -1.53,4.267 -3.19,9.091 -4.375,14.411 l -0.006,-0.131 c 0.23,0.697 0.465,1.403 0.7,2.116 0.27,0.816 0.19,1.613 0.123,2.393 -0.179,1.564 -0.506,3.083 -0.766,4.666 -0.155,0.782 -0.249,1.585 -0.411,2.405 -0.094,0.408 -0.183,0.821 -0.408,1.238 -0.108,0.202 -0.275,0.432 -0.552,0.556 -0.279,0.121 -0.564,0.087 -0.789,0.032 l -0.168,-0.048 -0.227,-0.128 c -0.127,-0.112 -0.2,-0.238 -0.253,-0.356 -0.105,-0.24 -0.135,-0.462 -0.166,-0.683 -0.05,-0.439 -0.047,-0.866 -0.034,-1.29 0.029,-0.848 0.11,-1.687 0.181,-2.526 0.041,-0.489 0.082,-0.975 0.103,-1.454 0.017,-0.467 0.033,-0.982 -0.074,-1.344 -0.025,-0.105 -0.075,-0.085 -0.017,-0.136 l 0.002,-0.004 0.006,-0.038 -0.002,0.011 0.003,0.034 0.015,0.047 -0.061,0.055 c -0.109,0.127 -0.22,0.335 -0.305,0.542 -0.178,0.419 -0.309,0.874 -0.425,1.328 -0.229,0.917 -0.358,1.827 -0.451,2.772 -0.111,0.94 -0.243,1.868 -0.386,2.786 -0.145,0.918 -0.301,1.825 -0.483,2.722 -0.206,0.902 -0.339,1.769 -0.761,2.671 -0.025,0.091 -0.204,0.292 -0.313,0.351 -0.112,0.067 -0.237,0.119 -0.372,0.157 -0.27,0.074 -0.599,0.04 -0.846,-0.118 -0.496,-0.328 -0.649,-0.849 -0.739,-1.301 -0.08,-0.466 -0.068,-0.926 -0.017,-1.37 0.05,-0.427 0.092,-0.846 0.125,-1.268 0.126,-1.684 0.19,-3.341 0.09,-4.925 -0.027,-0.394 -0.068,-0.786 -0.144,-1.155 -0.036,-0.186 -0.087,-0.364 -0.152,-0.518 l -0.109,-0.187 c -0.037,-0.084 -0.068,0.019 -0.066,-0.116 0.051,0.103 0.002,0.045 -0.037,0.131 l -0.119,0.208 c -0.071,0.163 -0.133,0.335 -0.188,0.513 -0.112,0.355 -0.197,0.722 -0.278,1.086 -0.593,2.937 -0.872,5.745 -1.129,8.285 v -0.032 c 0.021,0.514 -0.012,1.004 -0.164,1.487 -0.076,0.237 -0.188,0.478 -0.39,0.666 -0.199,0.192 -0.486,0.279 -0.741,0.27 l 0.054,-0.006 c -0.401,0.072 -0.695,-0.172 -0.862,-0.413 -0.171,-0.248 -0.248,-0.517 -0.307,-0.776 -0.11,-0.525 -0.108,-1.025 -0.133,-1.503 -0.037,-0.962 -0.044,-1.867 -0.016,-2.713 0.032,-1.706 0.416,-3.119 0.552,-4.281 0.174,-1.162 0.303,-2.064 0.36,-2.672 0.063,-0.289 -0.17,-0.475 -0.292,-0.523 -0.14,-0.061 -0.223,-0.07 -0.221,-0.082"
       style="fill:#e6e6e6;fill-opacity:1;fill-rule:nonzero;stroke:none;stroke-width:0.1"
       id="path226" /><path
       d="m 424.198,234.829 c 0,0 -2.767,0.132 -5.793,-0.664 -5.164,-1.359 -14.079,-6.762 -14.448,-13.436 h 6.475 c 0,0 -3.626,-7.719 -2.561,-7.004 2.765,1.855 8.269,7.447 8.269,7.447 l 8.058,13.657"
       style="fill:#e6e6e6;fill-opacity:1;fill-rule:nonzero;stroke:none;stroke-width:0.1"
       id="path228" /><path
       d="m 512.525,351.017 c -0.144,-0.012 -0.732,5.342 -1.313,11.957 -0.582,6.617 -0.937,11.99 -0.794,12.003 0.144,0.012 0.731,-5.34 1.313,-11.958 0.582,-6.615 0.937,-11.989 0.794,-12.002"
       style="fill:#e6e6e6;fill-opacity:1;fill-rule:nonzero;stroke:none;stroke-width:0.1"
       id="path230" /><path
       d="m 540.932,374.65 c 0.117,-0.084 -4.258,-6.433 -9.771,-14.18 -5.513,-7.75 -10.078,-13.963 -10.195,-13.881 -0.117,0.084 4.257,6.432 9.771,14.182 5.513,7.748 10.078,13.963 10.195,13.879"
       style="fill:#e6e6e6;fill-opacity:1;fill-rule:nonzero;stroke:none;stroke-width:0.1"
       id="path232" /><path
       d="m 552.734,345.873 c 0.03,-0.141 -5.076,-1.31 -11.401,-2.61 -6.328,-1.3 -11.479,-2.24 -11.509,-2.099 -0.028,0.141 5.077,1.309 11.404,2.609 6.326,1.3 11.478,2.24 11.506,2.1"
       style="fill:#e6e6e6;fill-opacity:1;fill-rule:nonzero;stroke:none;stroke-width:0.1"
       id="path234" /><path
       d="M 212.625,208.517 177.264,26.718 172.635,2.91914 408.698,4.0832 c 10.594,0.05274 19.983,9.459 23.391,23.4348 l 41.859,171.637 c 2.588,10.609 -3.09,21.644 -11.131,21.636 L 223.893,220.54 c -5.275,-0.006 -9.888,-4.928 -11.268,-12.023"
       style="fill:#f2b23b;fill-opacity:1;fill-rule:nonzero;stroke:none;stroke-width:0.1"
       id="path236" /><path
       d="m 411.715,4.35313 c 1.699,0.40898 3.145,0.86289 4.377,1.33593 -1.414,-0.62304 -2.878,-1.07304 -4.377,-1.33593"
       style="fill:#7e1c2c;fill-opacity:1;fill-rule:nonzero;stroke:none;stroke-width:0.1"
       id="path238" /><path
       d="m 414.01732,9.7032779 c -25.605,0 -28.074,29.3059001 -28.076,29.3270001 l -22.543,181.651802 99.306,0.104 c 0.003,0 0.005,0 0.009,0 6.702,0 11.76,-7.673 11.755,-16.371 -0.002,-1.732 -0.203,-3.504 -0.633,-5.265 l -18.02,-73.888 -7.178,-29.434202 -16.661,-68.3148 c -1.757,-7.2059 -5.104,-13.1969 -9.387,-17.318 0.216,0.3422 0.282,0.5449 0.282,0.5449 -3.221,-0.7129 -6.167,-1.0367001 -8.854,-1.0367001"
       style="fill:#162d50;fill-opacity:1;fill-rule:nonzero;stroke:none;stroke-width:0.1"
       id="path240" /><path
       d="M 386.054,39.0352 361.06,240.443 c -1.024,8.252 -7.598,14.408 -15.36,14.383 l -54.806,-0.179 c -4.057,-0.014 -7.946,-1.738 -10.827,-4.801 L 254.043,222.182 101.616,221.386 C 92.302,221.338 85.1457,212.524 86.3801,202.621 L 109.586,16.4691 c 1.027,-8.24097 7.589,-14.38902 15.34,-14.37418 l 265.646,0.525 c 29.587,-0.61289 32.412,8.12498 32.412,8.12498 -33.908,-7.51404 -36.927,28.2672 -36.93,28.2903"
       style="fill:#00a2f7;fill-opacity:1;fill-rule:nonzero;stroke:none;stroke-width:0.1"
       id="path242" /><path
       d="m 262.549,69.7219 -29.55,26.5832 8.959,9.6229 29.551,-26.5839 -8.96,-9.6222 m -39.452,35.4911 -29.55,26.583 8.959,9.623 29.55,-26.583 -8.959,-9.623"
       style="fill:#162d50;fill-opacity:1;fill-rule:nonzero;stroke:none;stroke-width:0.1"
       id="path244" /><path
       d="m 206.261,67.5879 -9.901,8.9082 26.737,28.7169 8.959,9.623 26.738,28.717 9.902,-8.908 -26.738,-28.717 -8.959,-9.6229 -26.738,-28.7172"
       style="fill:#162d50;fill-opacity:1;fill-rule:nonzero;stroke:none;stroke-width:0.1"
       id="path246" /><path
       d="m 423.986,339.277 c -0.638,0.273 -1.097,0.895 -1.13,1.636 l -0.399,9.283 c -0.026,0.584 0.224,1.147 0.674,1.518 0.45,0.373 1.05,0.513 1.618,0.378 1.492,-0.352 3.138,-0.028 4.515,0.892 1.268,0.846 2.119,2.092 2.335,3.419 0.216,1.322 -0.194,2.786 -1.122,4.016 -0.996,1.316 -2.466,2.204 -3.941,2.372 -3.011,0.347 -6.262,-1.96 -7.099,-5.037 -0.27,-0.995 -1.295,-1.582 -2.289,-1.312 -1.011,0.278 -1.582,1.296 -1.312,2.29 1.314,4.838 6.306,8.322 11.128,7.767 2.5,-0.288 4.869,-1.685 6.489,-3.83 1.542,-2.04 2.208,-4.542 1.829,-6.867 -0.382,-2.345 -1.82,-4.503 -3.946,-5.922 -1.536,-1.025 -3.299,-1.59 -5.061,-1.652 l 0.31,-7.156 c 0.044,-1.029 -0.755,-1.9 -1.784,-1.943 -0.289,-0.013 -0.566,0.041 -0.815,0.148"
       style="fill:#f6b337;fill-opacity:1;fill-rule:nonzero;stroke:none;stroke-width:0.1"
       id="path248" /><path
       d="m 426.722,335.484 c 0.057,-0.841 -0.577,-1.57 -1.418,-1.628 -0.841,-0.058 -1.571,0.577 -1.628,1.419 -0.058,0.84 0.577,1.569 1.418,1.627 0.842,0.058 1.57,-0.577 1.628,-1.418"
       style="fill:#ffb730;fill-opacity:1;fill-rule:nonzero;stroke:none;stroke-width:0.1"
       id="path250" /><path
       d="m 391.853,352.367 c 0.012,0 0.043,0.206 0.09,0.609 0.047,0.435 0.113,1.027 0.196,1.788 0.045,0.791 0.247,1.747 0.484,2.874 0.131,0.56 0.2,1.183 0.405,1.813 0.195,0.634 0.402,1.307 0.621,2.019 0.967,2.809 2.459,6.176 4.972,9.527 2.494,3.343 6.001,6.645 10.503,9.148 2.216,1.322 4.752,2.243 7.409,3.056 2.7,0.64 5.561,1.187 8.55,1.117 1.495,0.08 3.002,-0.139 4.537,-0.268 0.768,-0.074 1.523,-0.279 2.293,-0.413 0.771,-0.143 1.546,-0.293 2.301,-0.555 3.087,-0.792 6.086,-2.248 8.944,-4.053 5.737,-3.61 10.568,-9.481 13.218,-16.6 1.329,-3.561 1.965,-7.465 1.96,-11.408 0.079,-3.951 -0.686,-7.965 -2.092,-11.742 l -0.451,-1.142 -0.06,-0.151 0.062,-0.141 c 2.508,-5.777 4.968,-11.443 7.352,-16.932 l 0.419,0.477 c -5.164,1.985 -10.171,3.908 -14.975,5.754 l -0.186,0.071 -0.145,-0.141 c -4.155,-4.025 -9.117,-6.747 -14.142,-8.164 -5.04,-1.421 -10.116,-1.494 -14.733,-0.674 -4.627,0.82 -8.793,2.59 -12.267,4.865 -3.484,2.275 -6.278,5.041 -8.432,7.851 -2.138,2.843 -3.547,5.757 -4.61,8.359 -0.936,2.66 -1.51,5.021 -1.788,6.975 -0.118,0.976 -0.223,1.844 -0.314,2.601 -0.02,0.748 -0.036,1.384 -0.05,1.911 -0.017,0.491 -0.029,0.879 -0.039,1.171 -0.012,0.263 -0.023,0.398 -0.032,0.398 -0.009,0 -0.017,-0.133 -0.024,-0.397 -0.004,-0.293 -0.01,-0.68 -0.015,-1.174 -0.001,-0.529 -0.003,-1.169 -0.004,-1.921 0.077,-0.764 0.165,-1.639 0.264,-2.623 0.247,-1.973 0.793,-4.362 1.709,-7.062 1.045,-2.641 2.444,-5.604 4.585,-8.5 2.158,-2.865 4.972,-5.689 8.493,-8.019 3.511,-2.33 7.732,-4.151 12.429,-5.005 4.687,-0.854 9.847,-0.8 14.981,0.629 5.118,1.426 10.181,4.185 14.426,8.281 l -0.331,-0.07 c 4.802,-1.853 9.806,-3.784 14.968,-5.777 l 0.755,-0.291 -0.334,0.769 c -2.38,5.492 -4.837,11.158 -7.342,16.937 l 0.002,-0.291 0.461,1.166 c 1.438,3.862 2.217,7.966 2.136,12.004 0.003,4.03 -0.654,8.021 -2.015,11.658 -2.715,7.271 -7.657,13.246 -13.51,16.908 -2.915,1.832 -5.973,3.302 -9.117,4.1 -0.769,0.262 -1.557,0.413 -2.342,0.556 -0.785,0.134 -1.553,0.339 -2.333,0.41 -1.561,0.126 -3.094,0.341 -4.612,0.254 -3.038,0.059 -5.944,-0.509 -8.68,-1.175 -2.696,-0.839 -5.263,-1.789 -7.504,-3.144 -4.552,-2.567 -8.082,-5.942 -10.577,-9.349 -2.513,-3.413 -3.986,-6.836 -4.923,-9.681 -0.21,-0.721 -0.41,-1.404 -0.596,-2.046 -0.196,-0.637 -0.256,-1.267 -0.378,-1.833 -0.217,-1.14 -0.399,-2.104 -0.422,-2.901 -0.055,-0.765 -0.098,-1.362 -0.129,-1.8 -0.025,-0.405 -0.033,-0.612 -0.021,-0.613"
       style="fill:#17282f;fill-opacity:1;fill-rule:nonzero;stroke:none;stroke-width:0.1"
       id="path252" /></g></svg>
